<svg preserveAspectRatio="none" overflow="visible" style="display: block;" width="11.8155" height="11.2659" viewBox="0 0 11.8155 11.2659" fill="none" xmlns="http://www.w3.org/2000/svg">
<g id="Group">
<path id="Vector" d="M11.5442 7.96612L7.87594 1.17394C7.47901 0.438938 6.74307 0 5.90776 0C5.07226 0 4.33669 0.438937 3.93957 1.17412L0.271507 7.96612C-0.106493 8.66606 -0.0888678 9.492 0.31857 10.1751C0.726007 10.8581 1.44413 11.2659 2.23969 11.2659H9.57582C10.3712 11.2659 11.0893 10.8581 11.4968 10.1751C11.9044 9.492 11.922 8.66625 11.5442 7.96612ZM10.5308 9.59869C10.3283 9.93844 9.97126 10.1411 9.57582 10.1411H2.23969C1.84426 10.1411 1.48726 9.93844 1.28476 9.59869C1.08207 9.25912 1.07344 8.84869 1.26132 8.50087L4.92938 1.7085C5.12663 1.34325 5.49244 1.12519 5.90776 1.125C6.32307 1.125 6.68888 1.34325 6.88613 1.70869L10.5542 8.50087C10.7421 8.84869 10.7333 9.25931 10.5308 9.59869Z" fill="#E14B4B"/>
<path id="Vector_2" d="M5.90776 7.78875C5.58976 7.78875 5.33194 8.04656 5.33194 8.36456C5.33194 8.68256 5.58976 8.94037 5.90776 8.94037C6.22576 8.94037 6.48357 8.68256 6.48357 8.36456C6.48357 8.04656 6.22576 7.78875 5.90776 7.78875Z" fill="#E14B4B"/>
<path id="Vector_3" d="M5.90776 7.08731C6.21845 7.08731 6.47026 6.8355 6.47026 6.52481V4.7415C6.47026 4.43081 6.21845 4.179 5.90776 4.179C5.59707 4.179 5.34526 4.43081 5.34526 4.7415V6.52481C5.34526 6.8355 5.59707 7.08731 5.90776 7.08731Z" fill="#E14B4B"/>
</g>
</svg>
